<?xml version="1.0" encoding="UTF-8" standalone="no"?> <svg id="Glyph" xmlns="http://www.w3.org/2000/svg" viewBox="0 0 64 64"><title>1</title><path d="M52.03607,41.70952a5.28684,5.28684,0,0,0-7.8388.59016,4.753,4.753,0,0,1-5.91078.66364,55.71391,55.71391,0,0,1-9.18743-7.28048,55.21156,55.21156,0,0,1-8.04959-9.97764,4.69777,4.69777,0,0,1,.67433-5.87915,5.5731,5.5731,0,0,0,2.08606-4.21447,5.09326,5.09326,0,0,0-1.50659-3.62438l-5.247-5.24695a5.13549,5.13549,0,0,0-7.24883,0L7.67918,8.86856A12.51666,12.51666,0,0,0,6.05665,24.59893,119.55907,119.55907,0,0,0,21.14433,43.016,120.21638,120.21638,0,0,0,39.2558,57.85081a12.62,12.62,0,0,0,15.899-1.5172c1.51909-1.53991,3.79025-3.33474,3.62427-5.75278a5.09282,5.09282,0,0,0-1.50651-3.62436Z"/><path d="M51.72444,12.29221a28.06388,28.06388,0,0,0-19.97586-8.275,1.05367,1.05367,0,0,0,0,2.10722c14.05278-.29118,26.43686,12.09609,26.14394,26.148A1.05385,1.05385,0,0,0,60,32.27213,28.06615,28.06615,0,0,0,51.72444,12.29221Z"/><path d="M30.69291,22.3802a1.05366,1.05366,0,0,0,1.05361,1.05361,8.87964,8.87964,0,0,1,8.83676,8.8369,1.05365,1.05365,0,0,0,2.10729-.00007,10.94544,10.94544,0,0,0-10.944-10.944A1.05366,1.05366,0,0,0,30.69291,22.3802Z"/><path d="M49.23807,32.27167a1.05373,1.05373,0,0,0,2.10721-.00005c.21748-10.53544-9.064-19.81737-19.59994-19.59958a1.05363,1.05363,0,0,0,.0002,2.107A17.57455,17.57455,0,0,1,49.23807,32.27167Z"/></svg>