<?xml version="1.0" encoding="UTF-8" standalone="no"?> <svg height="512pt" viewBox="-61 0 512 512.001" width="512pt" xmlns="http://www.w3.org/2000/svg"><path d="m194.875 0-155.988281 199.304688c-25.4375 33.917968-38.886719 74.316406-38.886719 116.824218 0 112.398438 87.230469 195.871094 194.871094 195.871094 107.453125 0 194.871094-87.867188 194.871094-195.871094 0-42.507812-13.445313-82.90625-38.886719-116.824218zm0 482.019531c-92.464844 0-164.894531-72.867187-164.894531-165.890625 0-35.921875 11.34375-70.054687 32.804687-98.71875l132.089844-168.765625 132.085938 168.765625c21.460937 28.664063 32.804687 62.796875 32.804687 98.71875 0 91.472656-73.972656 165.890625-164.890625 165.890625zm0 0"/><path d="m209.863281 123.367188-115.417969 207.75h85.4375v117.8125l115.417969-207.75h-85.4375zm34.484375 147.792968-34.484375 62.070313v-32.089844h-64.464843l34.484374-62.074219v32.09375zm0 0"/></svg>